<svg xmlns="http://www.w3.org/2000/svg" viewBox="0 0 800 140">
  <defs>
    <linearGradient id="bg" x1="0%" y1="0%" x2="100%" y2="0%">
      <stop offset="0%" style="stop-color:#f8faff;stop-opacity:1" />
      <stop offset="100%" style="stop-color:#eef4ff;stop-opacity:1" />
    </linearGradient>
  </defs>

  <rect width="800" height="140" rx="12" fill="url(#bg)"/>

  <g transform="translate(72, 70)">

    <!-- Ocean -->
    <circle cx="0" cy="0" r="44" fill="#2563eb"/>

    <!-- Continents — simplified flat shapes -->
    <!-- Europe + Africa -->
    <path d="M -4 -30 Q 2 -28 6 -22 Q 10 -14 8 -4 Q 12 4 10 14 Q 6 24 2 30 Q -2 28 -6 20 Q -10 10 -8 0 Q -10 -10 -8 -22 Z" fill="#22c55e"/>
    <!-- Americas -->
    <path d="M -20 -26 Q -14 -24 -12 -16 Q -10 -8 -14 0 Q -12 10 -16 20 Q -20 28 -24 22 Q -26 14 -24 4 Q -26 -6 -22 -18 Z" fill="#22c55e"/>
    <!-- Asia -->
    <path d="M 8 -32 Q 18 -28 24 -18 Q 28 -8 22 -2 Q 16 4 10 0 Q 6 -8 8 -18 Z" fill="#22c55e"/>
    <!-- Australia -->
    <path d="M 18 10 Q 26 8 28 16 Q 26 24 18 22 Q 12 20 14 12 Z" fill="#22c55e"/>

    <!-- Magnifier flat -->
    <circle cx="13" cy="-11" r="14" fill="none" stroke="white" stroke-width="4"/>
    <line x1="22" y1="-1" x2="32" y2="9" stroke="white" stroke-width="4" stroke-linecap="round"/>

  </g>

  <!-- Title -->
  <text x="150" y="60" font-family="'Segoe UI', system-ui, sans-serif" font-size="46" font-weight="800" fill="#111827" letter-spacing="-1">Web</text>
  <text x="222" y="60" font-family="'Segoe UI', system-ui, sans-serif" font-size="46" font-weight="800" fill="#2563eb" letter-spacing="-1"> MCP</text>

  <!-- Tagline -->
  <text x="152" y="92" font-family="'Segoe UI', system-ui, sans-serif" font-size="15" fill="#6b7280" letter-spacing="0.1">Search, fetch and download from the web. Right from your AI.</text>

</svg>
