<svg xmlns="http://www.w3.org/2000/svg" viewBox="0 0 800 140">
  <defs>
    <linearGradient id="bg" x1="0%" y1="0%" x2="100%" y2="0%">
      <stop offset="0%" style="stop-color:#f8faff;stop-opacity:1" />
      <stop offset="100%" style="stop-color:#eef4ff;stop-opacity:1" />
    </linearGradient>
  </defs>

  <rect width="800" height="140" rx="12" fill="url(#bg)"/>

  <!-- Browser window icon — Chrome style -->
  <g transform="translate(14, 10)">

    <!-- Main window frame -->
    <rect x="0" y="0" width="120" height="120" rx="6" fill="white" stroke="#e2e8f0" stroke-width="2"/>

    <!-- Tab bar -->
    <rect x="0" y="0" width="120" height="22" rx="6" fill="#dee1e6"/>
    <rect x="0" y="16" width="120" height="6" fill="#dee1e6"/>

    <!-- Active tab — rounded top only, flush with toolbar -->
    <path d="M6 22 L6 8 Q6 4 10 4 L58 4 Q62 4 62 8 L62 22 Z" fill="#f1f5f9"/>
    <!-- Favicon dot in tab -->
    <circle cx="15" cy="13" r="4" fill="#2563eb" opacity="0.7"/>
    <!-- Tab title line -->
    <rect x="23" y="10" width="28" height="5" rx="2" fill="#94a3b8"/>

    <!-- Toolbar -->
    <rect x="0" y="20" width="120" height="22" fill="#f1f5f9"/>

    <!-- Back / Forward / Reload buttons -->
    <text x="8" y="35" font-family="system-ui" font-size="13" fill="#64748b">‹</text>
    <text x="18" y="35" font-family="system-ui" font-size="13" fill="#64748b">›</text>
    <text x="28" y="35" font-family="system-ui" font-size="11" fill="#64748b">↻</text>

    <!-- URL bar -->
    <rect x="44" y="24" width="68" height="14" rx="7" fill="white" stroke="#cbd5e1" stroke-width="1.5"/>
    <!-- Lock -->
    <rect x="49" y="28" width="4" height="5" rx="1" fill="#94a3b8"/>
    <path d="M49.5 29.5 Q51 27 52.5 29.5" fill="none" stroke="#94a3b8" stroke-width="1.2"/>
    <!-- URL text simulation -->
    <rect x="56" y="30" width="44" height="3" rx="1.5" fill="#94a3b8" opacity="0.5"/>

    <!-- Page content area — search engine style -->
    <!-- Fake logo -->
    <text x="30" y="58" font-family="'Segoe UI', system-ui, sans-serif" font-size="11" font-weight="800" fill="#2563eb">W</text>
    <text x="38" y="58" font-family="'Segoe UI', system-ui, sans-serif" font-size="11" font-weight="800" fill="#ef4444">e</text>
    <text x="44" y="58" font-family="'Segoe UI', system-ui, sans-serif" font-size="11" font-weight="800" fill="#f59e0b">b</text>
    <text x="50" y="58" font-family="'Segoe UI', system-ui, sans-serif" font-size="11" font-weight="800" fill="#2563eb">M</text>
    <text x="58" y="58" font-family="'Segoe UI', system-ui, sans-serif" font-size="11" font-weight="800" fill="#22c55e">C</text>
    <text x="65" y="58" font-family="'Segoe UI', system-ui, sans-serif" font-size="11" font-weight="800" fill="#ef4444">P</text>

    <!-- Search bar -->
    <rect x="8" y="66" width="104" height="16" rx="8" fill="white" stroke="#e2e8f0" stroke-width="1.5"/>
    <!-- Search icon -->
    <circle cx="18" cy="74" r="4" fill="none" stroke="#94a3b8" stroke-width="1.5"/>
    <line x1="21" y1="77" x2="24" y2="80" stroke="#94a3b8" stroke-width="1.5" stroke-linecap="round"/>
    <!-- Fake query text -->
    <rect x="28" y="72" width="50" height="4" rx="2" fill="#94a3b8" opacity="0.4"/>

    <!-- Search button -->
    <rect x="30" y="88" width="60" height="12" rx="4" fill="#2563eb" opacity="0.8"/>
    <rect x="42" y="91" width="36" height="3" rx="1.5" fill="white" opacity="0.7"/>

  </g>

  <!-- Title -->
  <text x="152" y="60" font-family="'Segoe UI', system-ui, sans-serif" font-size="46" font-weight="800" fill="#111827" letter-spacing="-1">Web</text>
  <text x="224" y="60" font-family="'Segoe UI', system-ui, sans-serif" font-size="46" font-weight="800" fill="#2563eb" letter-spacing="-1"> MCP</text>

  <!-- Tagline -->
  <text x="154" y="92" font-family="'Segoe UI', system-ui, sans-serif" font-size="15" fill="#6b7280" letter-spacing="0.1">Search, fetch and download from the web. Right from your AI.</text>

</svg>
