<svg xmlns="http://www.w3.org/2000/svg" viewBox="0 0 120 120">

  <!-- Shadow -->
  <rect x="3" y="3" width="116" height="116" rx="10" fill="black" opacity="0.2"/>

  <!-- Main frame -->
  <rect x="0" y="0" width="116" height="116" rx="10" fill="#f8fafc"/>

  <!-- Tab bar — rounded top only -->
  <rect x="0" y="0" width="116" height="22" rx="10" fill="#94a3b8"/>
  <rect x="0" y="10" width="116" height="12" fill="#94a3b8"/>

  <!-- Active tab -->
  <path d="M6 22 L6 8 Q6 4 10 4 L58 4 Q62 4 62 8 L62 22 Z" fill="#f8fafc"/>
  <circle cx="15" cy="13" r="3.5" fill="#22d3ee"/>
  <rect x="23" y="10" width="28" height="4" rx="2" fill="#64748b"/>

  <!-- Toolbar -->
  <rect x="0" y="20" width="116" height="22" fill="#e2e8f0"/>

  <!-- Nav buttons -->
  <text x="6" y="35" font-family="system-ui" font-size="13" fill="#64748b">‹</text>
  <text x="16" y="35" font-family="system-ui" font-size="13" fill="#64748b">›</text>
  <text x="26" y="35" font-family="system-ui" font-size="11" fill="#64748b">↻</text>

  <!-- URL bar — no lock icon -->
  <rect x="40" y="24" width="68" height="14" rx="7" fill="white" stroke="#cbd5e1" stroke-width="1.5"/>
  <rect x="46" y="30" width="54" height="3" rx="1.5" fill="#64748b" opacity="0.4"/>

  <!-- Page content -->
  <rect x="10" y="52" width="96" height="5" rx="2" fill="#22d3ee" opacity="0.5"/>
  <rect x="10" y="63" width="74" height="3" rx="1.5" fill="#cbd5e1" opacity="0.7"/>
  <rect x="10" y="72" width="86" height="3" rx="1.5" fill="#cbd5e1" opacity="0.5"/>
  <rect x="10" y="81" width="58" height="3" rx="1.5" fill="#cbd5e1" opacity="0.4"/>

</svg>
